<svg xmlns="http://www.w3.org/2000/svg" width="800" height="800" viewBox="0 0 800 800" role="img" aria-label="조재표 일러스트">
  <defs>
    <linearGradient id="bg" x1="0" y1="0" x2="1" y2="1"><stop stop-color="#F8F0FF"/><stop offset="1" stop-color="#FFF1F2"/></linearGradient>
    <radialGradient id="halo" cx="50%" cy="30%" r="55%"><stop stop-color="#fff" stop-opacity=".78"/><stop offset="1" stop-color="#fff" stop-opacity="0"/></radialGradient>
    <filter id="shadow" x="-20%" y="-20%" width="140%" height="140%"><feDropShadow dx="0" dy="18" stdDeviation="24" flood-color="#111827" flood-opacity=".18"/></filter>
  </defs>
  <rect width="800" height="800" fill="url(#bg)"/>
  <circle cx="400" cy="230" r="310" fill="url(#halo)"/>
  <g opacity=".18" fill="none" stroke="#EC4899" stroke-width="5">
    <circle cx="125" cy="135" r="60"/><circle cx="675" cy="160" r="82"/><path d="M80 650C210 560 310 590 445 640s225 28 306-88"/>
  </g>
  <g transform="translate(500 520) rotate(35)"><rect x="0" y="0" width="180" height="30" rx="15" fill="#EC4899"/><path d="M174 0l42 15-42 15z" fill="#92400E"/><path d="M0 0h36v30H0z" fill="#FDE68A"/></g>
  <g filter="url(#shadow)" transform="translate(0 12)">
    <path d="M260 740c18-145 76-218 143-218s125 73 143 218z" fill="#F3F4F6"/>
    <path d="M322 740c8-89 36-142 80-142s73 53 80 142z" fill="#FFFFFF" opacity=".96"/>
    <path d="M323 315c0-86 52-146 129-146 75 0 126 60 126 146v62c0 92-54 158-128 158s-127-66-127-158z" fill="#F1C6A8"/>
    <path d="M319 332c-20-95 31-190 130-196 95-5 151 67 138 171-50-16-112-41-154-87-31 48-70 78-114 112z" fill="#111827"/>
    <path d="M310 360c-22 0-38 18-31 45 7 27 26 37 45 30" fill="#F1C6A8" opacity=".94"/>
    <path d="M588 360c22 0 38 18 31 45-7 27-26 37-45 30" fill="#F1C6A8" opacity=".94"/>
    <g fill="none" stroke="#111827" stroke-width="10" stroke-linecap="round" opacity=".82">
      <circle cx="398" cy="365" r="31"/><circle cx="506" cy="365" r="31"/><path d="M429 365h46"/>
    </g>
    <path d="M421 443c20 14 43 14 62 0" fill="none" stroke="#9A563B" stroke-width="8" stroke-linecap="round" opacity=".65"/>
    <circle cx="389" cy="392" r="7" fill="#111827"/><circle cx="511" cy="392" r="7" fill="#111827"/>
    <path d="M331 566c42 34 190 34 232 0 4 50-18 102-36 174H367c-18-72-39-124-36-174z" fill="#F3F4F6" opacity=".96"/>
    <path d="M365 560c24 28 87 37 143 0-22 62-54 94-74 118-22-26-48-57-69-118z" fill="#fff" opacity=".72"/>
  </g>
  <text x="42" y="724" font-family="Pretendard, Apple SD Gothic Neo, Arial, sans-serif" font-size="46" font-weight="900" fill="#111827" opacity=".9">조재표</text>
  <text x="44" y="766" font-family="Pretendard, Apple SD Gothic Neo, Arial, sans-serif" font-size="22" font-weight="800" fill="#EC4899">OurRealTrip Host</text>
</svg>