<svg xmlns="http://www.w3.org/2000/svg" width="800" height="800" viewBox="0 0 800 800" role="img" aria-label="정구봉 일러스트">
  <defs>
    <linearGradient id="bg" x1="0" y1="0" x2="1" y2="1"><stop stop-color="#ECFDF5"/><stop offset="1" stop-color="#EFF6FF"/></linearGradient>
    <radialGradient id="halo" cx="50%" cy="30%" r="55%"><stop stop-color="#fff" stop-opacity=".78"/><stop offset="1" stop-color="#fff" stop-opacity="0"/></radialGradient>
    <filter id="shadow" x="-20%" y="-20%" width="140%" height="140%"><feDropShadow dx="0" dy="18" stdDeviation="24" flood-color="#111827" flood-opacity=".18"/></filter>
  </defs>
  <rect width="800" height="800" fill="url(#bg)"/>
  <circle cx="400" cy="230" r="310" fill="url(#halo)"/>
  <g opacity=".18" fill="none" stroke="#10B981" stroke-width="5">
    <circle cx="125" cy="135" r="60"/><circle cx="675" cy="160" r="82"/><path d="M80 650C210 560 310 590 445 640s225 28 306-88"/>
  </g>
  <g transform="translate(500 490)"><path d="M65 60c-8 72-12 110-20 165" stroke="#7C4A2D" stroke-width="18" stroke-linecap="round"/><path d="M70 62C42 18 12 12 0 42c32 0 55 10 70 20Z" fill="#10B981"/><path d="M74 58c20-50 57-64 90-44-32 16-58 30-90 44Z" fill="#34D399"/><path d="M70 64c46-25 90-18 116 16-44 4-76-1-116-16Z" fill="#059669"/></g>
  <g filter="url(#shadow)" transform="translate(0 12)">
    <path d="M260 740c18-145 76-218 143-218s125 73 143 218z" fill="#9CA3AF"/>
    <path d="M322 740c8-89 36-142 80-142s73 53 80 142z" fill="#F8FAFC" opacity=".96"/>
    <path d="M323 315c0-86 52-146 129-146 75 0 126 60 126 146v62c0 92-54 158-128 158s-127-66-127-158z" fill="#E9BFA0"/>
    <path d="M319 332c-20-95 31-190 130-196 95-5 151 67 138 171-50-16-112-41-154-87-31 48-70 78-114 112z" fill="#111827"/>
    <path d="M310 360c-22 0-38 18-31 45 7 27 26 37 45 30" fill="#E9BFA0" opacity=".94"/>
    <path d="M588 360c22 0 38 18 31 45-7 27-26 37-45 30" fill="#E9BFA0" opacity=".94"/>
    <g fill="none" stroke="#111827" stroke-width="10" stroke-linecap="round" opacity=".82">
      <circle cx="398" cy="365" r="31"/><circle cx="506" cy="365" r="31"/><path d="M429 365h46"/>
    </g>
    <path d="M421 443c20 14 43 14 62 0" fill="none" stroke="#9A563B" stroke-width="8" stroke-linecap="round" opacity=".65"/>
    <circle cx="389" cy="392" r="7" fill="#111827"/><circle cx="511" cy="392" r="7" fill="#111827"/>
    <path d="M331 566c42 34 190 34 232 0 4 50-18 102-36 174H367c-18-72-39-124-36-174z" fill="#9CA3AF" opacity=".96"/>
    <path d="M365 560c24 28 87 37 143 0-22 62-54 94-74 118-22-26-48-57-69-118z" fill="#fff" opacity=".72"/>
  </g>
  <text x="42" y="724" font-family="Pretendard, Apple SD Gothic Neo, Arial, sans-serif" font-size="46" font-weight="900" fill="#111827" opacity=".9">정구봉</text>
  <text x="44" y="766" font-family="Pretendard, Apple SD Gothic Neo, Arial, sans-serif" font-size="22" font-weight="800" fill="#10B981">OurRealTrip Host</text>
</svg>